<svg width="78" height="149" viewBox="0 0 78 149" fill="none" xmlns="http://www.w3.org/2000/svg">
<g clip-path="url(#clip0_9_5)">
<path d="M35.75 31.042L35.75 117.959C35.75 119.605 36.0924 121.184 36.7019 122.349C37.3114 123.513 38.138 124.167 39 124.167C39.862 124.167 40.6886 123.513 41.2981 122.349C41.9076 121.184 42.25 119.605 42.25 117.959L42.25 31.042C42.25 29.3954 41.9076 27.8163 41.2981 26.652C40.6886 25.4877 39.862 24.8337 39 24.8337C38.138 24.8337 37.3114 25.4877 36.7019 26.652C36.0924 27.8163 35.75 29.3954 35.75 31.042Z" fill="#52796F"/>
</g>
<defs>
<clipPath id="clip0_9_5">
<rect width="149" height="100%" fill="white" transform="translate(0 149) rotate(-90)"/>
</clipPath>
</defs>
</svg>
