<svg width="207" height="51" viewBox="0 0 207 51" fill="none" xmlns="http://www.w3.org/2000/svg">
<path d="M11.88 50.7C8.14667 50.7 5.32333 49.65 3.41 47.55C1.49667 45.4033 0.54 42.3467 0.54 38.38V35.58H7.82V38.94C7.82 42.1133 9.15 43.7 11.81 43.7C13.1167 43.7 14.0967 43.3267 14.75 42.58C15.45 41.7867 15.8 40.5267 15.8 38.8C15.8 36.7467 15.3333 34.95 14.4 33.41C13.4667 31.8233 11.74 29.9333 9.22 27.74C6.04667 24.94 3.83 22.42 2.57 20.18C1.31 17.8933 0.68 15.3267 0.68 12.48C0.68 8.60667 1.66 5.62 3.62 3.52C5.58 1.37333 8.42667 0.299997 12.16 0.299997C15.8467 0.299997 18.6233 1.37333 20.49 3.52C22.4033 5.62 23.36 8.65333 23.36 12.62V14.65H16.08V12.13C16.08 10.45 15.7533 9.23666 15.1 8.49C14.4467 7.69666 13.49 7.3 12.23 7.3C9.66333 7.3 8.38 8.86333 8.38 11.99C8.38 13.7633 8.84667 15.42 9.78 16.96C10.76 18.5 12.51 20.3667 15.03 22.56C18.25 25.36 20.4667 27.9033 21.68 30.19C22.8933 32.4767 23.5 35.16 23.5 38.24C23.5 42.2533 22.4967 45.3333 20.49 47.48C18.53 49.6267 15.66 50.7 11.88 50.7ZM33.6598 0.999997H44.0898L52.0698 50H44.3698L42.9698 40.27V40.41H34.2198L32.8198 50H25.6798L33.6598 0.999997ZM42.0598 33.76L38.6298 9.54H38.4898L35.1298 33.76H42.0598ZM55.8055 0.999997H66.7955L71.6955 36.07H71.8355L76.7355 0.999997H87.7255V50H80.4455V12.9H80.3055L74.7055 50H68.2655L62.6655 12.9H62.5255V50H55.8055V0.999997ZM93.4716 0.999997H101.172V50H93.4716V0.999997ZM118.138 50.7C114.405 50.7 111.558 49.65 109.598 47.55C107.638 45.4033 106.658 42.3467 106.658 38.38V0.999997H114.358V38.94C114.358 40.62 114.685 41.8333 115.338 42.58C116.038 43.3267 117.018 43.7 118.278 43.7C119.538 43.7 120.495 43.3267 121.148 42.58C121.848 41.8333 122.198 40.62 122.198 38.94V0.999997H129.618V38.38C129.618 42.3467 128.638 45.4033 126.678 47.55C124.718 49.65 121.872 50.7 118.138 50.7ZM135.102 0.999997H142.802V43H155.472V50H135.102V0.999997ZM176.326 0.999997H186.756L194.736 50H187.036L185.636 40.27V40.41H176.886L175.486 50H168.346L176.326 0.999997ZM184.726 33.76L181.296 9.54H181.156L177.796 33.76H184.726ZM199.155 42.58H206.575V50H199.155V42.58Z" fill="#2F3E46"/>
</svg>
