<svg width="51" height="51" viewBox="0 0 51 51" fill="none" xmlns="http://www.w3.org/2000/svg">
<path d="M20.7108 22.125H25.375C25.801 22.125 26.2094 21.9558 26.5106 21.6547C26.8118 21.3535 26.981 20.945 26.981 20.5191C26.981 20.0932 26.8118 19.6847 26.5106 19.3836C26.2094 19.0824 25.801 18.9132 25.375 18.9132H20.7108C20.2849 18.9132 19.8764 19.0824 19.5753 19.3836C19.2741 19.6847 19.1049 20.0932 19.1049 20.5191C19.1049 20.945 19.2741 21.3535 19.5753 21.6547C19.8764 21.9558 20.2849 22.125 20.7108 22.125ZM40.9572 4.50342H9.97107C8.55634 4.50862 7.20104 5.07293 6.20068 6.07331C5.20031 7.07369 4.63603 8.429 4.63086 9.84373V40.8296C4.636 42.2444 5.20027 43.5997 6.20063 44.6001C7.201 45.6005 8.55631 46.1649 9.97107 46.1701H40.9569C42.3717 46.165 43.7271 45.6008 44.7276 44.6004C45.728 43.6 46.2924 42.2447 46.2975 40.8299V9.84373C46.2924 8.42896 45.7281 7.0736 44.7277 6.0732C43.7273 5.07281 42.372 4.50853 40.9572 4.50342V4.50342ZM38.7227 24.6655L38.6817 30.2393C38.6654 32.4625 37.7727 34.5895 36.1973 36.1583C34.622 37.7271 32.4913 38.611 30.268 38.618H20.6035C18.3776 38.614 16.2435 37.7303 14.6662 36.1597C13.0889 34.589 12.1964 32.4587 12.183 30.2328V20.4529C12.195 18.2255 13.0867 16.0931 14.6639 14.5202C16.2411 12.9473 18.3759 12.0614 20.6034 12.0555H26.4862C27.8414 12.2905 29.1275 12.8236 30.2517 13.6161C31.3758 14.4086 32.31 15.4408 32.9868 16.6382C33.4504 17.5187 33.7081 18.493 33.7406 19.4875C33.8809 20.5408 33.9548 21.3234 34.4282 21.7572C35.0935 22.3603 37.5684 21.954 38.0578 22.3373L38.4303 22.6286L38.6572 23.0904L38.7322 23.4603L38.7227 24.6655ZM30.1873 28.5486H20.7108C20.5016 28.5422 20.2933 28.5779 20.0981 28.6535C19.9029 28.7292 19.725 28.8433 19.5747 28.989C19.4245 29.1347 19.305 29.3091 19.2235 29.5019C19.1419 29.6946 19.0998 29.9018 19.0998 30.1111C19.0998 30.3204 19.1419 30.5276 19.2235 30.7203C19.305 30.9131 19.4245 31.0875 19.5747 31.2332C19.725 31.379 19.9029 31.493 20.0981 31.5687C20.2933 31.6443 20.5016 31.68 20.7108 31.6736H30.1873C30.3958 31.6789 30.6033 31.6424 30.7975 31.5662C30.9916 31.4901 31.1686 31.3758 31.318 31.2302C31.4673 31.0846 31.586 30.9106 31.667 30.7184C31.7481 30.5262 31.7898 30.3197 31.7898 30.1111C31.7898 29.9025 31.7481 29.696 31.667 29.5039C31.586 29.3117 31.4673 29.1376 31.318 28.992C31.1686 28.8464 30.9916 28.7321 30.7975 28.656C30.6033 28.5798 30.3958 28.5433 30.1873 28.5486H30.1873Z" fill="black"/>
</svg>
