<svg width="30" height="30" viewBox="0 0 30 30" fill="none" xmlns="http://www.w3.org/2000/svg">
<path d="M13.75 11.25H16.25C16.5815 11.25 16.8995 11.3817 17.1339 11.6161C17.3683 11.8505 17.5 12.1685 17.5 12.5C17.5 12.8315 17.6317 13.1495 17.8661 13.3839C18.1005 13.6183 18.4185 13.75 18.75 13.75C19.0815 13.75 19.3995 13.6183 19.6339 13.3839C19.8683 13.1495 20 12.8315 20 12.5C20 11.5054 19.6049 10.5516 18.9017 9.84835C18.1984 9.14509 17.2446 8.75 16.25 8.75H13.75C12.7554 8.75 11.8016 9.14509 11.0984 9.84835C10.3951 10.5516 10 11.5054 10 12.5V17.5C10 18.4946 10.3951 19.4484 11.0984 20.1517C11.8016 20.8549 12.7554 21.25 13.75 21.25H16.25C17.2446 21.25 18.1984 20.8549 18.9017 20.1517C19.6049 19.4484 20 18.4946 20 17.5C20 17.1685 19.8683 16.8505 19.6339 16.6161C19.3995 16.3817 19.0815 16.25 18.75 16.25C18.4185 16.25 18.1005 16.3817 17.8661 16.6161C17.6317 16.8505 17.5 17.1685 17.5 17.5C17.5 17.8315 17.3683 18.1495 17.1339 18.3839C16.8995 18.6183 16.5815 18.75 16.25 18.75H13.75C13.4185 18.75 13.1005 18.6183 12.8661 18.3839C12.6317 18.1495 12.5 17.8315 12.5 17.5V12.5C12.5 12.1685 12.6317 11.8505 12.8661 11.6161C13.1005 11.3817 13.4185 11.25 13.75 11.25ZM15 2.5C12.5277 2.5 10.111 3.23311 8.05537 4.60663C5.99976 5.98015 4.3976 7.93238 3.45151 10.2165C2.50541 12.5005 2.25787 15.0139 2.74019 17.4386C3.2225 19.8634 4.41301 22.0907 6.16117 23.8388C7.90932 25.587 10.1366 26.7775 12.5614 27.2598C14.9861 27.7421 17.4995 27.4946 19.7835 26.5485C22.0676 25.6024 24.0199 24.0002 25.3934 21.9446C26.7669 19.889 27.5 17.4723 27.5 15C27.5 13.3585 27.1767 11.733 26.5485 10.2165C25.9203 8.69989 24.9996 7.3219 23.8388 6.16117C22.6781 5.00043 21.3001 4.07969 19.7835 3.45151C18.267 2.82332 16.6415 2.5 15 2.5ZM15 25C13.0222 25 11.0888 24.4135 9.4443 23.3147C7.79981 22.2159 6.51808 20.6541 5.76121 18.8268C5.00433 16.9996 4.8063 14.9889 5.19215 13.0491C5.578 11.1093 6.53041 9.32746 7.92893 7.92893C9.32746 6.53041 11.1093 5.578 13.0491 5.19215C14.9889 4.8063 16.9996 5.00433 18.8268 5.7612C20.6541 6.51808 22.2159 7.79981 23.3147 9.4443C24.4135 11.0888 25 13.0222 25 15C25 17.6522 23.9464 20.1957 22.0711 22.0711C20.1957 23.9464 17.6522 25 15 25Z" fill="white"/>
</svg>
