<svg width="50" height="50" viewBox="0 0 50 50" fill="none" xmlns="http://www.w3.org/2000/svg">
<path d="M43.5416 4.1665H6.45829C5.8505 4.1665 5.26761 4.40795 4.83784 4.83772C4.40807 5.26749 4.16663 5.85038 4.16663 6.45817V43.5415C4.16663 43.8425 4.2259 44.1405 4.34107 44.4185C4.45624 44.6965 4.62504 44.9492 4.83784 45.162C5.05064 45.3748 5.30327 45.5436 5.58131 45.6587C5.85935 45.7739 6.15735 45.8332 6.45829 45.8332H26.4166V29.6873H21V23.4373H26.4166V18.7498C26.3044 17.6493 26.4343 16.5376 26.7973 15.4926C27.1602 14.4476 27.7474 13.4947 28.5176 12.7007C29.2878 11.9067 30.2224 11.2908 31.2558 10.8962C32.2893 10.5016 33.3965 10.3379 34.5 10.4165C36.1215 10.4065 37.7422 10.49 39.3541 10.6665V16.2915H36.0416C33.4166 16.2915 32.9166 17.5415 32.9166 19.354V23.3748H39.1666L38.3541 29.6248H32.9166V45.8332H43.5416C43.8426 45.8332 44.1406 45.7739 44.4186 45.6587C44.6966 45.5436 44.9493 45.3748 45.1621 45.162C45.3749 44.9492 45.5437 44.6965 45.6589 44.4185C45.774 44.1405 45.8333 43.8425 45.8333 43.5415V6.45817C45.8333 6.15722 45.774 5.85923 45.6589 5.58119C45.5437 5.30315 45.3749 5.05052 45.1621 4.83772C44.9493 4.62492 44.6966 4.45611 44.4186 4.34095C44.1406 4.22578 43.8426 4.1665 43.5416 4.1665V4.1665Z" fill="black"/>
</svg>
