<svg width="50" height="50" viewBox="0 0 50 50" fill="none" xmlns="http://www.w3.org/2000/svg">
<path d="M25 14.5832C22.9397 14.5832 20.9258 15.1941 19.2128 16.3387C17.4998 17.4833 16.1646 19.1102 15.3762 21.0136C14.5878 22.9169 14.3815 25.0114 14.7834 27.032C15.1854 29.0527 16.1775 30.9087 17.6343 32.3655C19.0911 33.8223 20.9471 34.8144 22.9678 35.2164C24.9884 35.6183 27.0828 35.412 28.9862 34.6236C30.8896 33.8352 32.5165 32.5 33.6611 30.787C34.8057 29.074 35.4166 27.0601 35.4166 24.9998C35.4166 22.2372 34.3192 19.5876 32.3657 17.6341C30.4121 15.6806 27.7626 14.5832 25 14.5832V14.5832ZM25 31.2498C23.7638 31.2498 22.5555 30.8833 21.5276 30.1965C20.4998 29.5098 19.6988 28.5336 19.2257 27.3916C18.7527 26.2496 18.6289 24.9929 18.8701 23.7805C19.1112 22.5681 19.7065 21.4545 20.5805 20.5804C21.4546 19.7063 22.5683 19.1111 23.7806 18.8699C24.993 18.6288 26.2497 18.7525 27.3917 19.2256C28.5338 19.6986 29.5099 20.4997 30.1966 21.5275C30.8834 22.5553 31.25 23.7637 31.25 24.9998C31.25 26.6574 30.5915 28.2472 29.4194 29.4193C28.2473 30.5914 26.6576 31.2498 25 31.2498ZM35.4166 12.4998C35.0046 12.4998 34.6018 12.622 34.2592 12.8509C33.9166 13.0799 33.6496 13.4052 33.4919 13.7859C33.3342 14.1666 33.2929 14.5855 33.3733 14.9896C33.4537 15.3937 33.6521 15.7649 33.9435 16.0563C34.2348 16.3477 34.6061 16.5461 35.0102 16.6265C35.4143 16.7069 35.8332 16.6656 36.2139 16.5079C36.5946 16.3502 36.9199 16.0832 37.1489 15.7406C37.3778 15.398 37.5 14.9952 37.5 14.5832C37.5 14.0306 37.2805 13.5007 36.8898 13.11C36.4991 12.7193 35.9692 12.4998 35.4166 12.4998ZM45.7083 17.1665C45.6738 15.3861 45.3356 13.6247 44.7083 11.9582C44.1266 10.4416 43.2324 9.0644 42.0839 7.91587C40.9354 6.76735 39.5582 5.8732 38.0416 5.2915C36.3751 4.66421 34.6137 4.32602 32.8333 4.2915C30.8125 4.1665 30.1458 4.1665 25 4.1665C19.8541 4.1665 19.1875 4.1665 17.1666 4.2915C15.3863 4.32602 13.6248 4.66421 11.9583 5.2915C10.4418 5.8732 9.06453 6.76735 7.916 7.91587C6.76747 9.0644 5.87333 10.4416 5.29163 11.9582C4.66433 13.6247 4.32614 15.3861 4.29163 17.1665C4.16663 19.2082 4.16663 19.8748 4.16663 24.9998C4.16663 30.1248 4.16663 30.7915 4.29163 32.8332C4.32614 34.6135 4.66433 36.3749 5.29163 38.0415C5.87333 39.558 6.76747 40.9353 7.916 42.0838C9.06453 43.2323 10.4418 44.1265 11.9583 44.7082C13.6248 45.3355 15.3863 45.6737 17.1666 45.7082C19.25 45.7082 19.8541 45.8332 25 45.8332C30.1458 45.8332 30.8125 45.8332 32.8333 45.7082C34.6137 45.6737 36.3751 45.3355 38.0416 44.7082C39.5582 44.1265 40.9354 43.2323 42.0839 42.0838C43.2324 40.9353 44.1266 39.558 44.7083 38.0415C45.3356 36.3749 45.6738 34.6135 45.7083 32.8332C45.7083 30.7498 45.8333 30.1248 45.8333 24.9998C45.8333 19.8748 45.8333 19.2082 45.7083 17.1665ZM41.5416 32.6457C41.5051 33.9678 41.259 35.2757 40.8125 36.5207C40.4433 37.5047 39.8597 38.3943 39.1041 39.1248C38.3779 39.8808 37.4866 40.4583 36.5 40.8123C35.2521 41.2771 33.9354 41.5306 32.6041 41.5623C30.6458 41.5623 30.0416 41.6665 24.9791 41.6665C19.9166 41.6665 19.3333 41.6665 17.375 41.6665C16.0458 41.6322 14.7307 41.386 13.4791 40.9373C12.4951 40.5681 11.6055 39.9846 10.875 39.229C10.119 38.5028 9.54146 37.6115 9.18746 36.6248C8.72455 35.3836 8.4711 34.0741 8.43746 32.7498C8.43746 30.6665 8.43746 30.1457 8.43746 25.104C8.43746 20.0623 8.43746 19.4582 8.43746 17.4582C8.47337 16.1274 8.72671 14.8114 9.18746 13.5623C9.54695 12.5845 10.124 11.7011 10.875 10.979C11.6012 10.2231 12.4925 9.6455 13.4791 9.2915C14.727 8.8267 16.0437 8.57323 17.375 8.5415C19.3333 8.33317 19.9375 8.33317 25 8.33317C30.0625 8.33317 30.6666 8.33317 32.625 8.33317C33.9628 8.36719 35.2859 8.62056 36.5416 9.08317C37.5195 9.44267 38.4028 10.0197 39.125 10.7707C39.8809 11.4969 40.4585 12.3882 40.8125 13.3748C41.3225 14.6427 41.6114 15.9886 41.6666 17.354C41.6666 19.4373 41.7708 19.9582 41.7708 24.9998C41.7708 30.0415 41.6666 30.6457 41.6666 32.6457H41.5416Z" fill="black"/>
</svg>
